<svg width="32" height="32" viewBox="0 0 32 32" fill="none" xmlns="http://www.w3.org/2000/svg">
<g clip-path="url(#clip0_1726_6670)">
<path d="M31.6076 15.2241C31.4038 10.6146 29.0206 6.14617 25.2891 3.43378C22.2004 1.08199 18.2024 0.0472043 14.3454 0.454848C11.2568 0.784098 8.26215 2.02271 5.91036 4.06092C3.52722 6.03642 1.7869 8.7645 0.940252 11.7434C0.203358 14.4088 0.140644 17.278 0.877537 19.959C1.75554 23.4397 3.90351 26.5754 6.81972 28.6606C9.31262 30.5264 12.417 31.5298 15.5213 31.6396C19.1117 31.765 22.7335 30.6048 25.5556 28.3784C29.5694 25.3368 31.9055 20.2569 31.6076 15.2241ZM18.0142 18.156C18.7355 19.8022 20.0681 21.0408 21.3067 22.2951C20.5855 23.032 19.8486 23.7532 19.0804 24.4431C18.0456 23.3142 16.9011 22.2481 16.0544 20.9468C15.0667 22.2167 13.9848 23.3926 12.8089 24.4588C12.1191 23.7062 11.3979 22.9693 10.6923 22.2324C11.8682 21.0095 13.2793 19.9277 13.9535 18.3128C14.3141 17.5602 14.3768 16.7292 14.4866 15.9296C12.8403 15.7571 11.2097 15.616 9.57915 15.3495C9.70458 14.3304 9.83001 13.3113 9.9868 12.2922C12.6365 12.6841 15.3489 13.0918 18.0299 12.7782C19.3626 12.6841 20.6953 12.496 22.028 12.3079C22.122 13.327 22.3258 14.3304 22.4199 15.3495C20.805 15.5847 19.1901 15.7885 17.5596 15.8983C17.5909 16.6665 17.7007 17.4504 18.0142 18.156ZM15.4586 7.47886C16.7913 7.10257 18.2494 8.16871 18.3121 9.54843C18.4846 10.9595 17.0892 12.2608 15.6938 12.01C14.3298 11.8689 13.3577 10.348 13.781 9.04671C14.0319 8.27846 14.659 7.61996 15.4743 7.46318L15.4586 7.47886Z" fill="#2A2623"/>
</g>
<defs>
<clipPath id="clip0_1726_6670">
<rect width="32" height="32" fill="white"/>
</clipPath>
</defs>
</svg>
