<svg xmlns="http://www.w3.org/2000/svg" width="32" height="32" fill="none" viewBox="0 0 32 32">
  <g clip-path="url(#a)">
    <path fill="#2A2623" d="M14.35.455c3.84-.408 7.854.643 10.943 2.979 3.747 2.712 6.13 7.18 6.318 11.79.298 5.033-2.054 10.113-6.052 13.154-2.822 2.227-6.444 3.387-10.034 3.262-3.104-.095-6.209-1.114-8.702-2.98a15.446 15.446 0 0 1-5.942-8.7c-.737-2.682-.674-5.551.063-8.217.847-2.978 2.587-5.707 4.97-7.682C8.266 2.023 11.276.784 14.349.455Zm.736 3.01c-4.829.298-9.297 3.669-10.88 8.247-.973 2.571-1.004 5.472-.19 8.09.926 2.932 2.964 5.488 5.614 7.024a12.495 12.495 0 0 0 8.09 1.63c4.75-.61 8.984-4.201 10.3-8.826.785-2.493.722-5.221-.125-7.683-1.081-3.182-3.48-5.895-6.538-7.29a12.566 12.566 0 0 0-6.271-1.176v-.016Z"/>
    <path fill="#2A2623" d="M15.462 7.48c1.333-.377 2.79.689 2.854 2.069.172 1.41-1.223 2.712-2.619 2.461-1.364-.14-2.336-1.662-1.912-2.963.25-.768.877-1.427 1.693-1.584l-.016.016ZM9.99 12.292c2.65.392 5.363.8 8.044.486 1.333-.094 2.665-.282 3.998-.47.094 1.019.298 2.022.392 3.041-1.615.236-3.23.44-4.845.55.032.767.141 1.551.455 2.257.721 1.646 2.054 2.885 3.293 4.139a48.017 48.017 0 0 1-2.227 2.148c-1.05-1.129-2.18-2.195-3.026-3.496a27.622 27.622 0 0 1-3.245 3.512c-.69-.753-1.411-1.49-2.117-2.227 1.176-1.223 2.587-2.305 3.261-3.92.36-.752.423-1.583.533-2.383-1.646-.172-3.277-.313-4.907-.58.125-1.019.25-2.038.408-3.057H9.99Z"/>
  </g>
  <defs>
    <clipPath id="a">
      <path fill="#fff" d="M0 0h32v32H0z"/>
    </clipPath>
  </defs>
</svg>
