<?xml version="1.0" encoding="UTF-8"?>
<svg id="Ebene_2" data-name="Ebene 2" xmlns="http://www.w3.org/2000/svg" viewBox="0 0 1024 1024">
  <defs>
    <style>
      .cls-1 {
        fill: #747576;
      }

      .cls-2 {
        fill: #757575;
      }

      .cls-3 {
        fill: #b5b5b6;
      }

      .cls-4 {
        fill: #757677;
      }

      .cls-5 {
        fill: #b8b9b9;
      }

      .cls-6 {
        fill: #c9c9ca;
      }

      .cls-7 {
        fill: #7a7a7b;
      }

      .cls-8 {
        fill: #878787;
      }

      .cls-9 {
        fill: #efeff0;
      }

      .cls-10 {
        fill: #868787;
      }
    </style>
  </defs>
  <g id="Layer_1" data-name="Layer 1">
    <g>
      <path class="cls-9" d="M0,0h1024v971.8c-1.98-14.4-4.17-28.81-7.82-42.9-4.08-15.32-12.85-29-23.61-40.49-13.34-14.17-28.87-26.08-44.8-37.17-35.79-24.69-74.37-44.92-112.72-65.21.45-3.83.32-7.71-.07-11.53-2.8-21.87-19.22-38.95-36.7-50.88,2.55-17.18,1.33-35.27-5.49-51.37-6.27-14.85-17.13-27.43-29.91-37.1-24.39-18.48-53.61-29.23-82.85-37.3-8.75-2.52-17.77-4.02-26.43-6.78.35-1.47.59-2.97,1.21-4.35,10.99-19.57,14.76-42.01,19.48-63.66,1.86-7.98,2.74-16.16,4.68-24.1,5.21.26,10.68,1.88,15.71-.29,8.44-3.38,13.76-11.3,18.18-18.84,9.18-16.9,15.21-35.28,20.47-53.71,4.98-18.55,9.62-37.76,7.7-57.1-.8-7.98-3.96-16.63-11.2-20.89-7.13-3.98-16.31-1.62-22.15,3.61-1.49,1.21-2.28,3.39-4.29,3.86,5.95-37.9,9.37-76.46,6.14-114.79,6.63-7.53,11.06-16.66,16.13-25.24-3.43-2.17-7.32-3.47-10.92-5.3,2.43-3.69,4.63-7.7,5.22-12.15.6-7.12-.21-14.24-1.15-21.29-9.08,1.96-18.06,4.48-27.29,5.69,2.79-7.3,4.57-14.95,6.05-22.61.85-3.88.04-7.86-1-11.61l-.6-1.44c-7.03-.18-14.08.46-21.09-.24-17.94-9.93-34.09-22.61-50.04-35.39-12.42-10-25.57-19.28-40.22-25.74-19.57-8.72-40.84-13.53-62.22-14.46-8.28-.5-16.57-.39-24.85,0-24.71,1.39-49.12,6.77-72.5,14.8-19.58,6.95-38.63,15.73-55.85,27.42-8.67,6.12-17.19,12.95-23.01,21.97-3.77,5.79-5.9,12.56-6.36,19.44-7.75,4.22-16,7.68-22.92,13.25-15.46,11.97-24.93,30.19-29.35,48.95-4.65,20.37-4.42,41.52-2.44,62.21.12,1.46.42,2.91.75,4.34,2.11-3.06,4.13-6.18,6.1-9.32,3.6,27.79,9.52,55.27,17.39,82.16-4.46-5.07-10.13-10.11-17.33-9.97-8.37.1-14.51,7.48-16.74,14.96-3.79,12.6-1.91,25.98.09,38.72,3.73,19.22,9.7,37.94,16.28,56.35,3.93,10.49,8.32,20.95,14.65,30.25,3.96,5.78,9.29,11.2,16.31,12.89,4.78,1.42,9.67-.21,14.49-.45,2.7,18.19,6.17,36.27,10.69,54.1,3.12,11.67,6.88,23.42,13.59,33.58-16.4,3.07-32.36,8.41-47.77,14.79-22.71,9.67-44.3,22.84-61.41,40.81-18.98,19.67-30.57,47.25-27.86,74.79-16.7,7.84-31.82,20.32-40.32,36.94-5.47,10.46-7.35,22.72-5.27,34.33-36.51,19.35-73.11,38.78-107.22,62.2-15.16,10.58-30.03,21.76-43.11,34.88-10.79,10.84-20.27,23.6-24.57,38.48-1.75,5.41-2.72,11.03-3.86,16.59V0Z"/>
      <path class="cls-9" d="M678.36,732.98c9.8,4.86,16.23,15.3,16.96,26.11.95,11.67-2.47,23.09-6.06,34.06-11.43,33.37-28.41,65-50.95,92.2-16.8,20.17-36.22,38.28-58.18,52.74-19.83,13.27-41.88,23.11-64.89,29.38-2.72.67-5.4,1.58-8.2,1.84-3.76-.68-7.41-1.82-11.08-2.85-49.51-14.25-93.66-45.11-125.67-85.29-20.45-26.6-35.53-57.14-45.13-89.25-3.62-12.57-7.76-25.85-4.95-39,1.84-8.72,8.73-15.37,16.6-18.98,12.83,34.43,40.36,62.01,72.9,78.35,33.63,16.92,71.95,23.2,109.36,21.46,35.42-2.06,70.91-11.51,100.99-30.73,25.7-16.38,46.88-40.44,57.98-68.98l.32-1.06Z"/>
    </g>
    <g>
      <path class="cls-10" d="M425.05,85.83c23.38-8.03,47.79-13.41,72.5-14.8,3.62,1.55,7.62.89,11.44.97,4.47-.17,9.13.69,13.41-.97,21.38.93,42.65,5.74,62.22,14.46,14.65,6.46,27.8,15.74,40.22,25.74,15.95,12.78,32.1,25.46,50.04,35.39-.18.32-.53.97-.71,1.29,7.47.22,14.95-.33,22.4.39,1.04,3.75,1.85,7.73,1,11.61-1.48,7.66-3.26,15.31-6.05,22.61,9.23-1.21,18.21-3.73,27.29-5.69.94,7.05,1.75,14.17,1.15,21.29-.59,4.45-2.79,8.46-5.22,12.15,3.6,1.83,7.49,3.13,10.92,5.3-5.07,8.58-9.5,17.71-16.13,25.24-9.14,9.31-22.26,13.56-34.92,15.29l-.54,1.05-.45-.99c-22.62,2.43-45.53.12-67.66-4.83-16.15-3.49-31.89-8.55-47.58-13.62,3.72,5,8.36,9.25,11.97,14.34-25.91-2.66-51.34-8.81-76.23-16.32-17.85-5.7-35.74-11.32-53.87-16.05,1.82,3.35,4.15,6.37,6.15,9.6-11.26-2.56-22.63-4.73-33.67-8.16,2.02,5.06,5.42,9.53,7.95,14.39-12.59-1.79-24.99-4.66-37.25-7.99-2.79-.62-5.57-1.67-8.46-1.55-12.33,2.52-23.23,10.53-29.71,21.27-6.55,10.63-8.52,23.5-7.77,35.8.88,14,2.97,28.05,1.21,42.07-2.59,21.12-7.1,42.03-8.01,63.34-1,11.31-.61,22.66-.77,34-2.03-3.01-3.24-6.46-4.47-9.84-5.51-15.51-8.35-31.75-12.08-47.73-.6-3.18-2.4-5.89-4.01-8.63-7.87-26.89-13.79-54.37-17.39-82.16-1.97,3.14-3.99,6.26-6.1,9.32-.33-1.43-.63-2.88-.75-4.34-1.98-20.69-2.21-41.84,2.44-62.21,4.42-18.76,13.89-36.98,29.35-48.95,6.92-5.57,15.17-9.03,22.92-13.25.46-6.88,2.59-13.65,6.36-19.44,5.82-9.02,14.34-15.85,23.01-21.97,17.22-11.69,36.27-20.47,55.85-27.42ZM454.06,115.67c43.77,4.11,86.79,13.58,129.98,21.53,2.38.44,4.77.9,7.21.87-2.23-2.1-5.3-2.89-7.94-4.33-26.59-12.98-55.72-20.94-85.35-22.04-14.69-.17-29.65.42-43.9,3.97ZM383.72,140.68c-11.49,4.38-21.65,13-26.57,24.42-1.79,3.99-2.36,8.37-3.49,12.57-3.91.1-7.88-.01-11.69.98-8.99,1.97-16.67,7.88-22.37,14.92-2.21,2.71-5.23,4.85-6.64,8.14,11.33-5.27,24.85-9.67,37-4.58-1.43,3.05-4.92,4.36-7.24,6.63-9.83,9.09-17.53,21.1-19.79,34.42,3.06-3.4,5.2-7.53,8.18-11.01,8.66-11.24,20.87-21.43,35.59-22.36-4.52-10.58-6.29-22.71-2.81-33.85,3.97-12.77,13.2-23.32,24.07-30.82-1.45-.17-2.91-.09-4.24.54ZM433.37,145.41c-17.09,2.51-33.23,10.38-46.05,21.89-7.78,7.77-14.14,17.8-15.3,28.92,2.03-1.8,3.24-4.25,4.86-6.38,6.61-7.81,14.36-14.88,23.77-19.15,16.31-7.62,34.45-10.67,52.35-10.86,25.21-.79,50.25,2.95,75.08,6.84.73.02,2.19.07,2.92.09-1.14-.89-2.44-1.55-3.77-2.07-7.82-3.1-15.42-6.74-23.37-9.51-22.4-8.12-46.63-13.85-70.49-9.77ZM420.95,179.87c-10.5,2.49-20.98,6.7-28.81,14.35-5.15,5.15-10.04,10.96-13.1,17.57,16.52-8.2,34.43-13.51,52.66-16.24,26.69-3.78,53.75-1.23,80.35,2,4.05.39,8.03,1.46,12.12,1.44-1.89-1.66-4.33-2.42-6.5-3.59-16.83-8.09-34.43-15.14-52.99-17.91-14.57-1.84-29.36-.38-43.73,2.38Z"/>
      <path class="cls-10" d="M652.2,590.54c.35.13,1.05.39,1.4.53,8.66,2.76,17.68,4.26,26.43,6.78,29.24,8.07,58.46,18.82,82.85,37.3,12.78,9.67,23.64,22.25,29.91,37.1,6.82,16.1,8.04,34.19,5.49,51.37,17.48,11.93,33.9,29.01,36.7,50.88-1.56,3.86-1.03,8.08-.55,12.1.74,4.74-1.49,9.27-3.24,13.54-4.37,9.97-12.08,17.94-20.23,24.92-31.25,24.71-63.32,48.44-96.8,70.05-4.61,2.79-9.06,6.01-14.25,7.63,1.53-2.19,4.48-3.72,4.38-6.72.39-4.77-4.24-8.12-8.42-9.06-6.54-2.26-14.45-1.21-19.16,4.13-.05,3.69.31,7.38.16,11.08-.33-3.8-.55-7.61-.9-11.4-2.41,2.55-4.71,5.57-4.87,9.23-.46,3.84,2.56,7.07,5.81,8.61.02,8.2.22,16.42-.4,24.62-.25-5.03.23-10.07-.43-15.07-10.45,6.69-22.01,11.33-33.07,16.88-38.41,17.88-79.73,30.12-122,33.87-2.09.37-4.19.03-5.77-1.44,23.01-6.27,45.06-16.11,64.89-29.38,21.96-14.46,41.38-32.57,58.18-52.74l.96.47c2.95-2.26,5.66-4.82,8.8-6.83,11.8-9.42,22.11-20.5,32.69-31.22,16.35-17.69,31.16-36.89,43.28-57.75,14.3-24.67,25.53-52.17,25.89-81.07.28-15.54-4.66-31.28-14.85-43.14-14.33-17.12-35.59-26.54-56.68-32.33-8.53-2.53-17.49-3.24-26.01-5.73-.41-12.4-.06-24.81-.19-37.21Z"/>
    </g>
    <g>
      <path class="cls-4" d="M497.55,71.03c8.28-.39,16.57-.5,24.85,0-4.28,1.66-8.94.8-13.41.97-3.82-.08-7.82.58-11.44-.97Z"/>
      <path class="cls-4" d="M674.17,147.91c.18-.32.53-.97.71-1.29,7.01.7,14.06.06,21.09.24l.6,1.44c-7.45-.72-14.93-.17-22.4-.39Z"/>
    </g>
    <g>
      <path class="cls-2" d="M454.06,115.67c14.25-3.55,29.21-4.14,43.9-3.97,29.63,1.1,58.76,9.06,85.35,22.04,2.64,1.44,5.71,2.23,7.94,4.33-2.44.03-4.83-.43-7.21-.87-43.19-7.95-86.21-17.42-129.98-21.53Z"/>
      <path class="cls-2" d="M383.72,140.68c1.33-.63,2.79-.71,4.24-.54-10.87,7.5-20.1,18.05-24.07,30.82-3.48,11.14-1.71,23.27,2.81,33.85-14.72.93-26.93,11.12-35.59,22.36-2.98,3.48-5.12,7.61-8.18,11.01,2.26-13.32,9.96-25.33,19.79-34.42,2.32-2.27,5.81-3.58,7.24-6.63-12.15-5.09-25.67-.69-37,4.58,1.41-3.29,4.43-5.43,6.64-8.14,5.7-7.04,13.38-12.95,22.37-14.92,3.81-.99,7.78-.88,11.69-.98,1.13-4.2,1.7-8.58,3.49-12.57,4.92-11.42,15.08-20.04,26.57-24.42Z"/>
      <path class="cls-2" d="M433.37,145.41c23.86-4.08,48.09,1.65,70.49,9.77,7.95,2.77,15.55,6.41,23.37,9.51,1.33.52,2.63,1.18,3.77,2.07-.73-.02-2.19-.07-2.92-.09-24.83-3.89-49.87-7.63-75.08-6.84-17.9.19-36.04,3.24-52.35,10.86-9.41,4.27-17.16,11.34-23.77,19.15-1.62,2.13-2.83,4.58-4.86,6.38,1.16-11.12,7.52-21.15,15.3-28.92,12.82-11.51,28.96-19.38,46.05-21.89Z"/>
      <path class="cls-2" d="M420.95,179.87c14.37-2.76,29.16-4.22,43.73-2.38,18.56,2.77,36.16,9.82,52.99,17.91,2.17,1.17,4.61,1.93,6.5,3.59-4.09.02-8.07-1.05-12.12-1.44-26.6-3.23-53.66-5.78-80.35-2-18.23,2.73-36.14,8.04-52.66,16.24,3.06-6.61,7.95-12.42,13.1-17.57,7.83-7.65,18.31-11.86,28.81-14.35Z"/>
      <path class="cls-2" d="M651.32,592.47c.22-.48.66-1.45.88-1.93.13,12.4-.22,24.81.19,37.21,8.52,2.49,17.48,3.2,26.01,5.73,21.09,5.79,42.35,15.21,56.68,32.33,10.19,11.86,15.13,27.6,14.85,43.14-.36,28.9-11.59,56.4-25.89,81.07-12.12,20.86-26.93,40.06-43.28,57.75-10.58,10.72-20.89,21.8-32.69,31.22-3.14,2.01-5.85,4.57-8.8,6.83l-.96-.47c22.54-27.2,39.52-58.83,50.95-92.2,3.59-10.97,7.01-22.39,6.06-34.06-.73-10.81-7.16-21.25-16.96-26.11l-.32,1.06c-4.19-4.17-8.55-8.2-12.1-12.95-7.24-9.26-12.1-20.38-13.89-32-1.26-7.65-.67-15.42-.81-23.12-.1-24.5.27-49,.08-73.5Z"/>
      <path class="cls-2" d="M314.41,644.47c15.03-8.6,32.01-12.76,48.76-16.51.41,19.02.13,38.08.11,57.12-1.58,19.12-11.91,36.65-26.47,48.86-7.87,3.61-14.76,10.26-16.6,18.98-2.81,13.15,1.33,26.43,4.95,39,9.6,32.11,24.68,62.65,45.13,89.25l-.09,1.31c-15.48-11.95-28.94-26.25-41.85-40.88-24.08-28.93-44.32-62.17-52.7-99.22-3.67-17.26-5.57-35.64-.12-52.75,5.72-19.77,21.2-35.39,38.88-45.16Z"/>
      <path class="cls-2" d="M834.43,786.6c-.48-4.02-1.01-8.24.55-12.1.39,3.82.52,7.7.07,11.53,38.35,20.29,76.93,40.52,112.72,65.21,15.93,11.09,31.46,23,44.8,37.17,10.76,11.49,19.53,25.17,23.61,40.49,3.65,14.09,5.84,28.5,7.82,42.9v52.2h-330.98c2.27-24.27,3.32-48.65,4.8-72.98.58-16.03,1.45-32.08.81-48.12-.39-5.38-.29-11.01-2.76-15.94,4.18.94,8.81,4.29,8.42,9.06.1,3-2.85,4.53-4.38,6.72,5.19-1.62,9.64-4.84,14.25-7.63,33.48-21.61,65.55-45.34,96.8-70.05,8.15-6.98,15.86-14.95,20.23-24.92,1.75-4.27,3.98-8.8,3.24-13.54Z"/>
      <path class="cls-2" d="M71.54,850.54c34.11-23.42,70.71-42.85,107.22-62.2,2.32,7.59,5.99,14.75,11.01,20.91,5.49,7.47,12.84,13.22,19.97,19.03,30.13,23.05,60.39,46,91.98,67.03,4.54,2.42,8.35,6.21,13.32,7.76.7-3.48-4.45-3.14-4.94-6.17-1.52-4.81,3.34-9.44,7.92-9.51-1.6,3.96-1.39,8.33-1.74,12.53-.99,41.41,2.27,82.77,4.58,124.08H0v-83.51c1.14-5.56,2.11-11.18,3.86-16.59,4.3-14.88,13.78-27.64,24.57-38.48,13.08-13.12,27.95-24.3,43.11-34.88Z"/>
      <path class="cls-2" d="M339.03,891.94c3.85,2.88,7.15,8.16,4.95,13.02-.68,2.17-3,3-4.79,4.05-.07-5.7-.41-11.38-.16-17.07Z"/>
      <path class="cls-2" d="M338.81,917.12c43.52,23.48,90.03,42.96,139.25,50.14,6.68.71,13.35,2.14,20.1,1.71-.93-.52-1.85-1.03-2.76-1.52.14-.25.42-.74.56-.99,3.67,1.03,7.32,2.17,11.08,2.85,2.8-.26,5.48-1.17,8.2-1.84,1.58,1.47,3.68,1.81,5.77,1.44,42.27-3.75,83.59-15.99,122-33.87,11.06-5.55,22.62-10.19,33.07-16.88.66,5,.18,10.04.43,15.07-1.04,30.29-2.91,60.53-4.92,90.77h-329.53c.52-8.66-1.03-17.38-1.11-26.07-1.2-19.57-1.97-39.15-2.48-58.75.44-7.35-.19-14.72.34-22.06Z"/>
    </g>
    <path class="cls-6" d="M440.25,219.68c18.13,4.73,36.02,10.35,53.87,16.05,24.89,7.51,50.32,13.66,76.23,16.32-3.61-5.09-8.25-9.34-11.97-14.34,15.69,5.07,31.43,10.13,47.58,13.62,22.13,4.95,45.04,7.26,67.66,4.83l.45.99.54-1.05c.2,7.98,1,15.95.97,23.95.18,15.26-2.16,30.56-.32,45.79,2.72,22.05,7.42,43.9,7.94,66.18.71,10.11.46,20.25.05,30.37,2.5-2.18,3.32-5.58,4.68-8.48,5.57-15.15,7.69-31.24,10.89-46.97.66-4.12,3.11-7.53,4.57-11.34,2.01-.47,2.8-2.65,4.29-3.86,5.84-5.23,15.02-7.59,22.15-3.61,7.24,4.26,10.4,12.91,11.2,20.89,1.92,19.34-2.72,38.55-7.7,57.1-5.26,18.43-11.29,36.81-20.47,53.71-4.42,7.54-9.74,15.46-18.18,18.84-5.03,2.17-10.5.55-15.71.29-1.94,7.94-2.82,16.12-4.68,24.1-4.72,21.65-8.49,44.09-19.48,63.66-.62,1.38-.86,2.88-1.21,4.35-.35-.14-1.05-.4-1.4-.53-.22.48-.66,1.45-.88,1.93-4.13,2.1-6.14,6.48-9.11,9.79-7.48,9.74-16.2,18.4-24.92,27.01-3.07,2.96-5.55,6.46-8.62,9.41-7.16,6.51-13.35,14.01-20.78,20.23-7.77,7.46-16.23,14.53-26.23,18.8-16.85,7.3-35.63,6.3-53.59,7-15.89-.44-32.2-.07-47.45-5.21-13.81-4.36-24.87-14.2-35.32-23.81-12.76-12.57-25.51-25.15-37.98-38.01-6.38-7.3-13.35-14.1-18.99-22.03-1.14-1.72-2.7-3.1-4.44-4.2-.68-1.67-1.55-3.25-2.5-4.77-6.71-10.16-10.47-21.91-13.59-33.58-4.52-17.83-7.99-35.91-10.69-54.1-4.82.24-9.71,1.87-14.49.45-7.02-1.69-12.35-7.11-16.31-12.89-6.33-9.3-10.72-19.76-14.65-30.25-6.58-18.41-12.55-37.13-16.28-56.35-2-12.74-3.88-26.12-.09-38.72,2.23-7.48,8.37-14.86,16.74-14.96,7.2-.14,12.87,4.9,17.33,9.97,1.61,2.74,3.41,5.45,4.01,8.63,3.73,15.98,6.57,32.22,12.08,47.73,1.23,3.38,2.44,6.83,4.47,9.84.16-11.34-.23-22.69.77-34,.91-21.31,5.42-42.22,8.01-63.34,1.76-14.02-.33-28.07-1.21-42.07-.75-12.3,1.22-25.17,7.77-35.8,6.48-10.74,17.38-18.75,29.71-21.27,2.89-.12,5.67.93,8.46,1.55,12.26,3.33,24.66,6.2,37.25,7.99-2.53-4.86-5.93-9.33-7.95-14.39,11.04,3.43,22.41,5.6,33.67,8.16-2-3.23-4.33-6.25-6.15-9.6Z"/>
    <path class="cls-7" d="M674.61,256.1c12.66-1.73,25.78-5.98,34.92-15.29,3.23,38.33-.19,76.89-6.14,114.79-1.46,3.81-3.91,7.22-4.57,11.34-3.2,15.73-5.32,31.82-10.89,46.97-1.36,2.9-2.18,6.3-4.68,8.48.41-10.12.66-20.26-.05-30.37-.52-22.28-5.22-44.13-7.94-66.18-1.84-15.23.5-30.53.32-45.79.03-8-.77-15.97-.97-23.95Z"/>
    <path class="cls-8" d="M313.62,601.47c15.41-6.38,31.37-11.72,47.77-14.79.95,1.52,1.82,3.1,2.5,4.77-.54,22.51-.01,45.05-.24,67.57-.17,8.68.45,17.4-.37,26.06.02-19.04.3-38.1-.11-57.12-16.75,3.75-33.73,7.91-48.76,16.51-17.68,9.77-33.16,25.39-38.88,45.16-5.45,17.11-3.55,35.49.12,52.75,8.38,37.05,28.62,70.29,52.7,99.22,12.91,14.63,26.37,28.93,41.85,40.88l.09-1.31c32.01,40.18,76.16,71.04,125.67,85.29-.14.25-.42.74-.56.99.91.49,1.83,1,2.76,1.52-6.75.43-13.42-1-20.1-1.71-49.22-7.18-95.73-26.66-139.25-50.14-.53,7.34.1,14.71-.34,22.06-.98-15.94.08-31.93-.64-47.86-3.43-3.24-7.99-5.63-12.82-5.39-2.43-.09-4.65,1.02-6.99,1.46-4.58.07-9.44,4.7-7.92,9.51.49,3.03,5.64,2.69,4.94,6.17-4.97-1.55-8.78-5.34-13.32-7.76-31.59-21.03-61.85-43.98-91.98-67.03-7.13-5.81-14.48-11.56-19.97-19.03-5.02-6.16-8.69-13.32-11.01-20.91-2.08-11.61-.2-23.87,5.27-34.33,8.5-16.62,23.62-29.1,40.32-36.94-2.71-27.54,8.88-55.12,27.86-74.79,17.11-17.97,38.7-31.14,61.41-40.81ZM339.03,891.94c-.25,5.69.09,11.37.16,17.07,1.79-1.05,4.11-1.88,4.79-4.05,2.2-4.86-1.1-10.14-4.95-13.02Z"/>
    <path class="cls-5" d="M363.89,591.45c1.74,1.1,3.3,2.48,4.44,4.2,5.64,7.93,12.61,14.73,18.99,22.03,12.47,12.86,25.22,25.44,37.98,38.01,10.45,9.61,21.51,19.45,35.32,23.81,15.25,5.14,31.56,4.77,47.45,5.21,17.96-.7,36.74.3,53.59-7,10-4.27,18.46-11.34,26.23-18.8,7.43-6.22,13.62-13.72,20.78-20.23,3.07-2.95,5.55-6.45,8.62-9.41,8.72-8.61,17.44-17.27,24.92-27.01,2.97-3.31,4.98-7.69,9.11-9.79.19,24.5-.18,49-.08,73.5.14,7.7-.45,15.47.81,23.12,1.79,11.62,6.65,22.74,13.89,32,3.55,4.75,7.91,8.78,12.1,12.95-11.1,28.54-32.28,52.6-57.98,68.98-30.08,19.22-65.57,28.67-100.99,30.73-37.41,1.74-75.73-4.54-109.36-21.46-32.54-16.34-60.07-43.92-72.9-78.35,14.56-12.21,24.89-29.74,26.47-48.86.82-8.66.2-17.38.37-26.06.23-22.52-.3-45.06.24-67.57Z"/>
    <g>
      <path class="cls-3" d="M318.02,887.39c2.34-.44,4.56-1.55,6.99-1.46,4.83-.24,9.39,2.15,12.82,5.39.72,15.93-.34,31.92.64,47.86.51,19.6,1.28,39.18,2.48,58.75.08,8.69,1.63,17.41,1.11,26.07h-21.2c-2.31-41.31-5.57-82.67-4.58-124.08.35-4.2.14-8.57,1.74-12.53Z"/>
      <path class="cls-3" d="M676.71,891.09c4.71-5.34,12.62-6.39,19.16-4.13,2.47,4.93,2.37,10.56,2.76,15.94.64,16.04-.23,32.09-.81,48.12-1.48,24.33-2.53,48.71-4.8,72.98h-21.43c2.01-30.24,3.88-60.48,4.92-90.77.62-8.2.42-16.42.4-24.62-.02-2.16-.01-4.3-.04-6.44.15-3.7-.21-7.39-.16-11.08Z"/>
    </g>
    <path class="cls-1" d="M671.1,900c.16-3.66,2.46-6.68,4.87-9.23.35,3.79.57,7.6.9,11.4.03,2.14.02,4.28.04,6.44-3.25-1.54-6.27-4.77-5.81-8.61Z"/>
  </g>
</svg>