<?xml version="1.0" encoding="UTF-8"?>
<svg id="Ebene_2" data-name="Ebene 2" xmlns="http://www.w3.org/2000/svg" xmlns:xlink="http://www.w3.org/1999/xlink" viewBox="0 0 935.41 935.41">
  <defs>
    <style>
      .cls-1 {
        opacity: .51;
      }

      .cls-2 {
        fill: url(#Unbenannter_Verlauf_426);
      }

      .cls-3 {
        fill: url(#Unbenannter_Verlauf_426-5);
      }

      .cls-4 {
        fill: url(#Unbenannter_Verlauf_426-11);
      }

      .cls-5 {
        fill: url(#Unbenannter_Verlauf_426-6);
      }

      .cls-6 {
        fill: url(#Unbenannter_Verlauf_426-9);
      }

      .cls-7 {
        fill: url(#Unbenannter_Verlauf_426-2);
      }

      .cls-8 {
        fill: url(#Unbenannter_Verlauf_426-7);
      }

      .cls-9 {
        fill: url(#Unbenannter_Verlauf_426-4);
      }

      .cls-10 {
        fill: url(#Unbenannter_Verlauf_426-8);
      }

      .cls-11 {
        fill: url(#Unbenannter_Verlauf_334);
        opacity: .63;
      }

      .cls-12 {
        fill: url(#Unbenannter_Verlauf_426-12);
      }

      .cls-13 {
        fill: url(#Unbenannter_Verlauf_426-14);
      }

      .cls-14 {
        fill: url(#Unbenannter_Verlauf_426-10);
      }

      .cls-15 {
        fill: url(#Unbenannter_Verlauf_426-3);
      }

      .cls-16 {
        fill: url(#Unbenannter_Verlauf_426-13);
      }
    </style>
    <linearGradient id="Unbenannter_Verlauf_334" data-name="Unbenannter Verlauf 334" x1="467.7" y1="0" x2="467.7" y2="935.41" gradientUnits="userSpaceOnUse">
      <stop offset="0" stop-color="#fff" stop-opacity="0"/>
      <stop offset=".6" stop-color="#a0bde1" stop-opacity=".14"/>
      <stop offset="1" stop-color="#749ed3" stop-opacity=".2"/>
    </linearGradient>
    <radialGradient id="Unbenannter_Verlauf_426" data-name="Unbenannter Verlauf 426" cx="513.53" cy="445.93" fx="513.53" fy="445.93" r="371.72" gradientUnits="userSpaceOnUse">
      <stop offset=".4" stop-color="#5280c1" stop-opacity=".06"/>
      <stop offset=".41" stop-color="#7da0d0" stop-opacity=".04"/>
      <stop offset=".44" stop-color="#e3eaf4" stop-opacity="0"/>
      <stop offset=".52" stop-color="#fff" stop-opacity="0"/>
      <stop offset=".59" stop-color="#9fb8dc" stop-opacity=".06"/>
      <stop offset=".68" stop-color="#628cc7" stop-opacity=".09"/>
      <stop offset=".94" stop-color="#5280c1" stop-opacity=".1"/>
    </radialGradient>
    <radialGradient id="Unbenannter_Verlauf_426-2" data-name="Unbenannter Verlauf 426" cx="562.81" cy="428.48" fx="562.81" fy="428.48" r="363.39" xlink:href="#Unbenannter_Verlauf_426"/>
    <radialGradient id="Unbenannter_Verlauf_426-3" data-name="Unbenannter Verlauf 426" cx="611.26" cy="415.47" fx="611.26" fy="415.47" r="349.26" xlink:href="#Unbenannter_Verlauf_426"/>
    <radialGradient id="Unbenannter_Verlauf_426-4" data-name="Unbenannter Verlauf 426" cx="323.33" cy="468.37" fx="323.33" fy="468.37" r="381.98" xlink:href="#Unbenannter_Verlauf_426"/>
    <radialGradient id="Unbenannter_Verlauf_426-5" data-name="Unbenannter Verlauf 426" cx="312.91" cy="485.54" fx="312.91" fy="485.54" r="337.23" xlink:href="#Unbenannter_Verlauf_426"/>
    <radialGradient id="Unbenannter_Verlauf_426-6" data-name="Unbenannter Verlauf 426" cx="645.56" cy="407.99" fx="645.56" fy="407.99" r="325.24" xlink:href="#Unbenannter_Verlauf_426"/>
    <radialGradient id="Unbenannter_Verlauf_426-7" data-name="Unbenannter Verlauf 426" cx="221.1" cy="470.06" fx="221.1" fy="470.06" r="331.49" xlink:href="#Unbenannter_Verlauf_426"/>
    <radialGradient id="Unbenannter_Verlauf_426-8" data-name="Unbenannter Verlauf 426" cx="675.66" cy="405.8" fx="675.66" fy="405.8" r="295.48" xlink:href="#Unbenannter_Verlauf_426"/>
    <radialGradient id="Unbenannter_Verlauf_426-9" data-name="Unbenannter Verlauf 426" cx="194.36" cy="442.43" fx="194.36" fy="442.43" r="290.73" xlink:href="#Unbenannter_Verlauf_426"/>
    <radialGradient id="Unbenannter_Verlauf_426-10" data-name="Unbenannter Verlauf 426" cx="173.11" cy="404.9" fx="173.11" fy="404.9" r="240.08" xlink:href="#Unbenannter_Verlauf_426"/>
    <radialGradient id="Unbenannter_Verlauf_426-11" data-name="Unbenannter Verlauf 426" cx="699.23" cy="407.57" fx="699.23" fy="407.57" r="261.04" xlink:href="#Unbenannter_Verlauf_426"/>
    <radialGradient id="Unbenannter_Verlauf_426-12" data-name="Unbenannter Verlauf 426" cx="153.41" cy="389.89" fx="153.41" fy="389.89" r="197.7" xlink:href="#Unbenannter_Verlauf_426"/>
    <radialGradient id="Unbenannter_Verlauf_426-13" data-name="Unbenannter Verlauf 426" cx="717.09" cy="412.32" fx="717.09" fy="412.32" r="222.19" xlink:href="#Unbenannter_Verlauf_426"/>
    <radialGradient id="Unbenannter_Verlauf_426-14" data-name="Unbenannter Verlauf 426" cx="730.88" cy="419.12" fx="730.88" fy="419.12" r="182.6" xlink:href="#Unbenannter_Verlauf_426"/>
  </defs>
  <g id="Layer_1" data-name="Layer 1">
    <g>
      <circle class="cls-11" cx="467.7" cy="467.7" r="467.7"/>
      <g class="cls-1">
        <path class="cls-2" d="M433.26,3.81c5.3-1.08,10.77-1.65,16.18-1.26,12.38,1.8,24.29,5.87,35.99,10.17,18.07,6.84,35.21,16.3,50.31,28.37,14.49,12.55,26.67,28.13,33.8,46.03,3.56,8.88,5.92,18.22,7.3,27.69,1.15,10.12,2.24,20.37.79,30.53-2.77,41.32-19.46,80.67-43.04,114.34-9.54,13.33-19.19,26.65-30.27,38.76-10.35,11.62-20.91,23.09-32.29,33.74-11.01,10.31-21.63,21.07-33.39,30.55-32.69,27.07-67.84,51.11-99.4,79.55-23.54,20.55-45.21,43.53-62.57,69.59-23.34,35.27-38.76,76.16-42.12,118.45-1.29,23.24,1.37,46.68,7.72,69.07,9.89,35.33,29.49,67.73,55.32,93.69,23.41,24.1,51.34,43.64,81.41,58.55,41.57,20.1,87.31,31.16,133.34,33.8,4.33.29,8.62,1.09,12.97.96,14.34-.08,28.69.1,43.04-.08,10.31-1.22,20.71-1.72,31.02-3.02,30.13-3.53,60.1-9.99,88.22-21.57,22.12-8.75,42.67-20.86,62.71-33.54,12.38-8.03,24.52-16.46,36.01-25.73,2.7-2.06,5.64-3.87,7.87-6.48.52.48,1.05.97,1.58,1.48-1.28.82-2.51,1.72-3.58,2.8-9.88,10.37-22.02,18.15-33.77,26.18-16.73,11.05-33.94,21.44-51.95,30.27-30.03,14.55-62.53,23.61-95.55,28.11-15.42,2.38-31.01,3.23-46.53,4.58-12.01.05-24.01-.05-36.02.03-5.72.23-11.32-1.32-17.03-1.07-55.26-3.23-110.15-18.63-157.79-47.1-21.84-13.53-42.39-29.28-60.18-47.88-6.91-6.66-12.68-14.34-18.42-21.99-23.79-30.8-38.42-68.44-42.51-107.09-1.69-10.21-1.01-20.56-1.01-30.84,2.37-38.06,14.36-75.27,33.5-108.18,8.31-14.36,17.81-28.05,28.37-40.85,3.74-3.66,6.98-7.76,10.41-11.7,9.57-11.04,20.68-20.57,31.14-30.73,14.42-12.64,29.2-24.89,44.44-36.54,12.95-9.67,25.46-19.9,38.41-29.56,22.08-17.46,43.16-36.22,62.93-56.24,23.17-23.77,44.78-49.33,61.98-77.81,17.87-29.8,30.11-63.52,32.15-98.39,1.7-17.29-1-34.84-6.54-51.25-8.06-22.51-24.08-41.6-43.41-55.37-16.08-11.06-33.84-19.66-52.47-25.47-12.58-4.37-25.78-6.89-39.07-7.55Z"/>
        <path class="cls-7" d="M489.24,2.67c9.01.81,18.2.49,27,2.88,16.18,4.26,31.48,11.48,45.82,20.02,17.71,10.69,33.62,24.78,44.8,42.3,9.33,14.92,14.82,32.04,17.22,49.41,4.59,35.5-1.96,71.77-15.03,104.89-11.71,29.94-29.61,57.07-50.03,81.75-14.35,17.28-29.26,34.18-45.72,49.49-5.36,5.35-11.45,9.88-16.8,15.24-29.03,24.99-60.74,46.57-91.07,69.91-21.3,16.47-42.41,33.37-60.75,53.16-12.44,12.19-22.85,26.25-32.42,40.75-17.43,26.7-29.48,57.18-33.1,88.95-4.23,30.97,1.76,62.87,15.07,91.01,13.2,27.17,33.39,50.45,56.62,69.53,29.08,24.13,62.98,42.25,98.88,53.93,27.27,9,55.91,13.32,84.51,14.86,9.97,1.13,20.02.45,30.02.64,24.65.42,49.25-2.13,73.52-6.39,49.11-8.25,95.69-28.14,137.84-54.32,19.84-12.32,39-25.93,56.14-41.84,6.76-5.67,12.12-12.78,18.77-18.55-3.44,5.54-7.14,10.97-11.44,15.88-16.7,15.98-35.3,29.89-54.75,42.34-26.62,17.04-54.76,31.92-84.49,42.75-28.71,11.08-59.13,16.98-89.6,20.62-4.59.89-9.32.11-13.88,1.18-4.65.95-9.4.46-14.1.61-11.22.3-22.45,1.01-33.67.34-8.04-.44-16.16-.02-24.12-1.41-30.1-1.03-59.81-7.93-88.06-18.21-19.54-6.95-38.01-16.62-55.75-27.31-8.25-4.9-15.84-10.81-23.77-16.19-6.22-4.75-11.97-10.09-17.92-15.17-11.61-11.45-23.55-22.88-32.38-36.72-20.47-28.08-31.69-62.85-31.52-97.59-.18-34.11,9.91-67.86,26.63-97.43,8.23-14.33,17.66-28,28.25-40.68,11.5-13.53,24.18-26.03,37.44-37.82,13.1-11.31,26.73-21.96,40.36-32.63,28.74-21.13,57.69-42.05,85.06-64.95,30.07-26.59,57.86-55.9,81.31-88.54,19.63-27.57,34.91-58.55,42.6-91.61,3.47-15.21,6.1-30.75,5.57-46.39,1.14-32.17-8.84-65.88-31.81-89.15-11.46-12.26-25.43-21.91-40.2-29.74-13.9-7.3-28.75-12.77-44.05-16.28-5.64-1.31-11.38-2.14-17-3.52Z"/>
        <path class="cls-15" d="M576.22,15.63c6.73,1.17,13.61,2.6,19.55,6.14,13.45,8.21,26.19,17.64,37.67,28.47,14.95,14.62,27,32.47,33.59,52.39,3.97,11.19,5.92,22.95,7.25,34.71.1,8.34-.03,16.69.05,25.03-2.57,36.61-14.28,72.18-31.38,104.5-17.48,32.18-39.6,61.83-65.24,87.97-24.58,25.76-52.38,48.29-81.77,68.34-33.07,22.83-66.84,45.01-96.47,72.32-24.4,22.35-46.69,47.88-60.8,78.07-9.35,20.56-15.04,43.1-14.36,65.78-.47,11.8,2,23.49,5.26,34.78,5.62,18.47,14.98,35.77,27.24,50.68,11.16,13.11,23.38,25.49,37.56,35.36,15.99,12.3,33.96,21.79,52.49,29.64,32.09,13.44,66.79,19.73,101.4,21.57,8.37-.08,16.67,1.47,25.06,1.01,6.72.46,13.33-.95,20.03-1.02,51.06-2.06,102-13.15,148.63-34.31,27.3-12.27,53.2-27.74,76.85-46.08,8.15-6.84,16.19-13.81,24.06-20.96,5.66-5.06,10.15-11.21,15.56-16.52,17.12-18.19,30.88-39.26,42.79-61.15-1.25,5.53-3.68,10.71-5.95,15.88-6.93,12.43-14.89,24.3-24.1,35.17-6.87,8.06-13.6,16.3-21.51,23.39-15.81,16.83-34.15,31.11-53.35,43.86-42.15,27.5-89.63,47-139.12,56.31-20.09,3.86-40.46,6.37-60.86,7.46-12.01-.42-24,1.8-36,.44-7.83-1.03-15.77.16-23.59-1.02-8.81-1.26-17.7-1.85-26.49-3.3-39.72-6.22-78.5-20.39-111.64-43.36-26.79-18.39-50.26-42.63-64.42-72.14-7.42-15.89-12.12-33.12-12.94-50.67.03-5.01,0-10.02,0-15.03,1.31-20.26,6.55-40.27,15.39-58.57,15.68-32.59,40.4-59.91,67.47-83.49,13.24-11.63,27.33-22.25,41.42-32.8,8.93-5.94,17.32-12.65,26.38-18.41,27.76-18.87,55.59-37.92,80.27-60.79,28.12-25.4,53.6-53.98,74.03-85.97,21.35-33.22,37.12-70.42,43.11-109.6.93-7.08,2.24-14.15,1.95-21.32-.27-9.33.72-18.75-.99-27.99-2.39-17.09-7.47-33.95-16.35-48.82-13.68-23.93-35.42-42.04-58.67-56.21-6.03-3.86-12.64-6.64-19.07-9.74Z"/>
        <path class="cls-9" d="M322.33,32.3c22.07-6.97,44.75-12.73,67.95-13.94,7.99.22,16.04-.52,23.97.75,32.35,3.55,64.88,15.77,87.98,39.35,3.86,3.61,6.7,8.1,9.87,12.3,10.44,14.78,15.97,32.65,17.21,50.61,0,6.69.04,13.39-.02,20.08-2.78,35.13-17.94,67.95-36.59,97.36-11.19,17.11-23.52,33.58-37.65,48.36-9.72,11.55-20.84,21.81-31.4,32.56-15.52,15.18-32.15,29.16-48.87,42.99-5.35,4.82-11.26,8.95-16.9,13.42-16.61,12.96-32.73,26.54-48.48,40.53-12.83,11.04-25.05,22.83-36.26,35.51-11.64,12.2-22.15,25.44-31.78,39.26-9.33,13.65-18.26,27.67-25.14,42.74-15.42,32.56-25.84,67.99-26.52,104.2.18,12.56.09,25.18,2.11,37.63,5.93,41.45,22.71,81.33,48.33,114.46,14.97,18.93,32.02,36.37,51.56,50.6,14.16,11.63,29.8,21.31,45.94,29.94,25.9,14.27,53.96,24.28,82.66,31.23,17.62,4.49,35.66,7.06,53.63,9.71,8.72.72,17.37,2.29,26.14,2.49,10.99,1.72,22.15.65,33.22.95,9.36-.05,18.72.09,28.08-.08,17.06-1.66,34.14-3.52,50.95-6.98,3.25-.68,6.52-1.22,9.81-1.65-7.28,2.28-14.4,5.11-21.82,6.94-13.92,2.12-27.98,3.4-42.02,4.77-15.32-.02-30.65.08-45.97-.05-7.3-1.21-14.72-.7-22.03-1.73-35.93-3.71-71.93-9.62-105.97-22.03-16.95-5.39-33.09-12.97-48.77-21.29-31.95-17.23-61.31-39.53-85.6-66.56-11.69-12.7-21.86-26.75-30.27-41.82-24.08-40.9-35.58-89.15-32.39-136.49,2.93-39.9,16.04-78.69,35.68-113.4,17.34-30.44,39.76-57.76,64.82-82.16,22.81-22.31,47.31-42.84,72.59-62.29,18.52-15.13,37.14-30.17,54.51-46.62,6.55-6.47,13.77-12.27,19.86-19.2,11.25-11.28,21.7-23.35,32.14-35.38,17.41-21.48,32.84-44.77,44.01-70.12,7.19-16.82,12.93-34.45,14.92-52.71,1.08-12.31,1.54-24.83-.88-37.02-3.27-17.23-10.75-34.02-23.11-46.66-18.39-20.71-44.78-32.63-71.52-38.14-10.55-2.14-21.28-3.36-32.02-3.83-22.78.79-45.32,5.25-67.09,11.89-31.52,9.11-62.55,20.69-90.8,37.55-36.74,21.66-68.42,50.8-97.25,81.98-8.03,8.64-16.17,17.21-23.57,26.41-17.53,19.76-33.16,41.1-48.42,62.64-9.14,12.95-17.99,26.11-26.47,39.51-8.1,12.39-14.61,25.77-20.17,39.47,2-7.49,4.91-14.7,7.65-21.94,1.64-4,2.92-8.22,5.31-11.86,5.73-8.06,10.31-16.87,16.03-24.94,12.4-18.74,25.78-36.81,38.99-54.98,26.33-33.69,55.32-65.27,86.53-94.5,12.55-11.22,25.69-21.81,39.44-31.52,31.56-21.86,67.09-37.55,103.86-48.3Z"/>
        <path class="cls-3" d="M350.09,48.11c11.78-5.04,24.32-8.75,37.2-9.1,19.15-.12,38.34,5.4,54.43,15.8,13.06,8.23,23.17,20.63,29.6,34.59,7.36,15.8,10.2,33.57,8.71,50.89-2.94,24.42-12.15,47.6-23.66,69.17-9.94,18.66-22.49,35.8-35.98,52.02-9.41,11.53-19.63,22.34-30.42,32.57-8.09,7.22-15.28,15.41-23.81,22.13-24.37,21.69-49.63,42.33-73.91,64.11-28.77,26.61-56.94,54.29-80,86.13-19.21,26.15-35.78,54.55-46.23,85.39-8.15,22.77-14.19,46.4-16.58,70.5-.53,10.03-1.84,20.08-.77,30.12.57,4.62.48,9.29.65,13.94,3.89,38.82,16.57,76.81,37.31,109.9,8.27,13.63,18.25,26.11,28.34,38.43,15.24,18.06,32.56,34.39,51.66,48.32,11.76,8.47,23.64,16.93,36.63,23.43,31.65,17,65.23,30.7,100.15,39.29,9.92,2.55,20,4.35,30.04,6.34-12.96-.4-26.03-1.62-38.54-5.2-19.19-5.12-37.87-12-56.08-19.9-22.76-9.97-45.23-20.96-65.51-35.43-18.51-12.88-35.93-27.41-51.21-44.01-22.14-24.5-41.9-51.6-55.16-81.99-8.89-19.91-14.9-41.04-18.52-62.52-3.38-19.66-3.7-39.78-2.13-59.63,3.82-36.58,14.59-72.3,30.62-105.35,8.95-18.4,20.1-35.63,31.98-52.26,3.34-4.58,6.47-9.33,10.42-13.41,17.16-22.57,37.49-42.43,57.63-62.3,16.53-14.84,33.05-29.68,50.03-44,23.95-20.33,47.87-40.77,70-63.09,10.56-11.46,21.12-22.94,30.72-35.23,11.01-14.37,21.05-29.58,29.16-45.77,10.36-20.5,18.18-42.58,20.37-65.54,1.43-27.23-8.57-56.08-30.03-73.66-15.75-13.47-36.56-19.58-56.93-21.11-12.44.5-24.63,3.57-36.4,7.51-4.33,1.63-9.05,1.32-13.58,1.05,3.05-1.53,6.73-.5,9.8-2.13Z"/>
        <path class="cls-5" d="M650.37,40.44c4.94,1.49,9.8,3.62,13.62,7.18,19.24,15.22,34.65,35.24,44.56,57.68,3.93,9.32,6.32,19.18,8.72,28.98,1.87,7.55,1.82,15.37,2.91,23.03,1.41,30.16-4.03,60.41-14.14,88.79-15.49,42.43-39.61,81.63-70.22,114.82-6.58,8.04-14.21,15.12-21.49,22.51-22.45,21.92-46.97,41.74-73.06,59.18-28.16,18.98-58.28,35.02-85.41,55.53-16.27,12.41-31.09,26.64-44.82,41.79-20.29,23.06-34.76,51.72-38.53,82.39-.74,11.16-.5,22.49,2.33,33.37,3.47,12.99,8.7,25.63,16.38,36.72,11.21,16.49,26.18,30.23,42.85,41.07,37.83,24.26,82.72,35.7,127.28,38,13.22,1.76,26.61.85,39.91.84,6.37-.84,12.81-.82,19.19-1.63,57.9-4.65,115.15-21.44,165.13-51.32,21.11-12.46,41.03-27.08,58.51-44.29,6.75-4.86,11.41-11.82,17.28-17.57,7.56-8.24,14.68-16.9,21.09-26.07,7.59-10.54,15.15-21.18,21.1-32.76,7.53-12.18,12.84-25.53,18.52-38.63-.46,12.02-6.44,22.71-11.81,33.15-12.33,23.14-27.7,44.57-44.68,64.51-7.92,8.08-15.74,16.26-23.95,24.04-36.01,32.87-79.49,57.03-125.54,72.68-30.13,9.71-61.31,16.29-92.86,19.04-18.95,1.83-38.04,2.72-57.05,1.53-35.78-2.32-72.07-8.1-104.74-23.57-29.98-13.24-58.19-33.27-75.48-61.62-12.83-21.13-19.84-46.62-15.8-71.3,2.01-16.43,7.88-32.15,15.34-46.84,15.3-28.66,38.68-52,63.76-72.21,30.92-24.38,66.41-41.99,98.36-64.86,4.93-3.66,10.07-7.04,15.05-10.63,29.57-22.86,57.46-48.17,81.24-77.08,21.44-24.75,38.57-53.08,51.82-82.96,11.19-25.81,19.21-53.26,20.96-81.42,2.6-28.75-1.95-58.55-15.06-84.46-7.43-14.19-17.01-27.33-28.77-38.24-7.24-6.74-14.72-13.25-22.5-19.37Z"/>
        <path class="cls-8" d="M244.25,89.23c29.63-16.69,61.36-30.58,95-36.63,9.6-2.06,19.4.06,28.78,2.22,12.79,2.68,24.96,8.33,35.26,16.37,14.79,11.52,24.9,28.71,28.06,47.17,4.27,20.51-1.88,41.39-9.87,60.19-16.63,38.51-43.64,71.53-73.58,100.48-5.69,6.31-12.18,11.8-18.15,17.85-3.44,3.57-7.38,6.59-10.99,9.98-14.46,14.6-30.51,27.45-45.17,41.85-34.66,33.04-69.72,66.25-97.87,105.21-21.61,30.13-39.65,63.07-51.07,98.43-10.58,32.53-16.64,66.8-15.23,101.06,2.61,31.77,9.85,63.43,23.61,92.29,9.83,20.64,21.77,40.3,35.65,58.46,10.02,13.06,20.83,25.63,33.29,36.43,13.46,13.79,29.31,24.93,45.29,35.59,6.26,4.29,13.09,7.7,19.21,12.19-8.73-3.58-17-8.16-25.26-12.69-9.05-5.34-17.23-11.99-25.46-18.47-11.36-10-23.22-19.63-32.9-31.33-11.29-11.68-20.91-24.88-29.91-38.38-12.94-19.93-24.42-40.97-32.32-63.44-6.96-19.93-11.34-40.74-13.34-61.75-2.62-23.65-.26-47.56,4.01-70.88,8.58-45.69,27.71-89.03,53.64-127.47,20.85-31.1,46.06-58.99,72.85-85.04,8.06-7.93,16.07-15.91,24.19-23.78,5.92-4.81,11.11-10.42,16.72-15.57,14.25-12.33,27.87-25.34,41.67-38.16,13.06-12.92,27.01-24.97,39.17-38.78,3.31-3.69,7.04-7.01,9.99-11.02,21.02-22.67,38.33-48.89,50.45-77.35,5.75-14.91,10.56-30.68,9.39-46.85-1.37-16.47-7.53-32.94-18.89-45.15-17.41-19.48-44.61-28.47-70.3-26.72-19.99,3.31-39.21,10.14-57.84,17.98-51,21.69-95.04,56.96-133.23,96.65-18.7,18.8-35.3,39.53-51.73,60.3-24.32,32.04-46.92,65.48-65.94,100.96-3.47,6.24-7,12.46-9.84,19.03-4.66,9.07-8.79,18.42-12.14,28.06.42-7.15,2.16-14.26,5.24-20.74,6.75-15.65,15.23-30.47,23.69-45.25,28.49-48.59,62.17-94.15,100.15-135.72,8.92-10.13,18.77-19.37,28.36-28.85,7.87-6.44,14.93-13.8,22.88-20.14,10.81-8.56,21.67-17.08,32.91-25.09,7.31-4.3,14.22-9.25,21.57-13.5Z"/>
        <path class="cls-10" d="M715.98,75.13c9.38,4.01,15.1,12.73,20.76,20.74,8.78,12.93,15.9,27.11,19.95,42.25,5.34,18.59,8.06,37.98,7.6,57.32-1.42,19.9-4.15,39.8-9.94,58.95-11.23,38.85-29.78,75.62-54.74,107.47-34.65,44.59-79.92,79.65-127.6,109.32-25.52,16.15-53.23,28.69-77.73,46.47-5.47,4.08-11.39,7.63-16.17,12.55-14.36,11.59-27.39,25.03-37.43,40.57-8.09,12.65-14.21,26.78-16.36,41.71-2.79,16.84-.33,34.49,6.96,49.95,6.97,15.01,18.75,27.31,32.03,36.96,11.23,8.03,23.59,14.41,36.42,19.47,30.59,10.79,63.22,15.16,95.57,14.67,8.38-.31,16.82.26,25.16-.94,20.78-1,41.32-4.85,61.56-9.58,27.27-6.56,54.04-15.77,78.91-28.82,23.7-11.53,45.65-26.43,65.99-43.15,6.11-4.82,11.43-10.52,17.35-15.56,16.04-15.72,30.68-32.86,43.79-51.08,20.35-29.47,36.61-62.53,42.84-98.03.98,9.83-.87,19.74-4.24,28.98-4.85,15.54-12.25,30.08-19.7,44.48-7.51,13.28-16.01,25.99-25.3,38.08-5.12,7.01-11.22,13.2-16.58,20.01-8.83,9.97-18.45,19.21-28.14,28.33-6.7,5.23-12.62,11.4-19.65,16.2-12.64,9.27-25.63,18.09-39.24,25.89-41.63,23.94-88.24,38.58-135.73,45.01-14.28,1.76-28.62,3.5-43.03,3.04-11.33-.32-22.75.82-34-.94-9.11-1.17-18.33-1.56-27.3-3.61-16.91-3.27-33.9-7.11-49.53-14.56-16.42-7.57-31.83-17.65-44.47-30.65-7.43-7.7-12.79-17.12-17.26-26.77-9.58-22.71-8.27-49.1,1.27-71.62,6.88-16.83,18.08-31.5,30.48-44.64,15.15-15.56,32.91-28.29,51.18-39.91,14.31-8.94,29.29-16.73,43.91-25.13,18.41-10.66,36.46-22,53.67-34.52,16.88-12.55,33.7-25.29,48.9-39.88,27.16-24.9,50.93-53.78,68.64-86.17,21.83-40.31,36.3-85.52,36.33-131.67-.66-20.48-4.18-41.01-11.75-60.12-5.9-15.01-14.57-28.82-24.88-41.17-2.79-3.34-6.07-6.27-8.5-9.9Z"/>
        <path class="cls-6" d="M290.16,88.98c12.94-4.66,26.24-9.08,40.11-9.63,11.8.58,23.85,3.5,33.45,10.67,18.68,13.12,26.75,38.02,22.43,60-4.89,24.59-18.2,46.45-32.79,66.45-8.42,10.84-16.93,21.63-26.28,31.69-9.98,10.38-20.23,20.52-30.58,30.53-5.07,4.57-10.38,8.88-15.07,13.86-5.35,5.65-11.67,10.25-17.15,15.75-4.24,4.11-8.29,8.43-12.93,12.1-13.49,12.87-27.15,25.59-40.08,39.04-11.91,12.77-24.63,24.8-35.55,38.46-29.67,33.83-53.26,72.83-70.48,114.36-8.73,20.68-15.14,42.29-19.94,64.2-7.33,34.05-9.57,69.66-2.81,103.99,6.65,35.91,22.54,69.59,43.2,99.51,4.94,7.31,10.53,14.14,16.38,20.73,1.31,1.49,2.47,3.12,3.51,4.82-6.99-6.09-13.57-12.72-19.52-19.85-22.2-30.68-39.25-65.63-46.16-103.06-8.14-40.44-4.11-82.37,6.03-122.08,11.35-44,31.06-85.61,56.05-123.47,26.38-39.99,60.84-73.6,94.81-107.06,4.42-4.62,9.43-8.61,14.07-12.99,6.9-7.1,14.46-13.49,21.74-20.18,18.31-16.74,36.15-33.98,53.3-51.9,10.86-11.87,21.14-24.29,30.25-37.56,13.41-19.47,25.46-41.01,28.05-64.91.68-14.15-2.96-29.07-12.17-40.12-5.98-7.4-13.85-13.44-22.87-16.59-4.44-1.6-9.15-2.15-13.78-2.89-6.69-1.18-13.45.25-20.02,1.48-29.65,7.08-56.75,22.07-81.45,39.6-39.47,28.28-74.34,62.57-105.29,99.87-33.83,40.85-62.88,85.41-89.66,131.11-10.85,20.3-21.87,40.62-29.92,62.25-2.85,6.98-4.98,14.22-7.47,21.33-.46-4.77.17-9.62,1.49-14.21,7.04-20.29,16.47-39.66,26.63-58.55,13.02-25.24,28.88-48.84,44.04-72.81,16.09-23.91,32.98-47.31,51.26-69.6,25.83-31.14,54.44-60.06,85.81-85.64,24.17-19.57,50.37-37.12,79.36-48.7Z"/>
        <path class="cls-14" d="M280.62,121.68c9.62-4.75,19.98-8.31,30.7-9.33,8.91.06,18.03,3.21,24.48,9.49,9.25,8.62,11.81,22.96,7.72,34.7-6.88,22.31-21.17,41.31-36.21,58.79-11.91,14.37-25.69,26.97-39.05,39.93-32.57,28.7-64.25,58.55-93.41,90.74-18.8,21.42-36.34,43.99-51.86,67.92-23.43,36.18-43.38,74.74-57.92,115.36-8.22,23-13.56,47.01-15.92,71.32-1.23,8.53-.88,17.18-.93,25.79-.11,24.24,5.21,48.18,12.91,71.07-3.81-5.95-7.59-12.17-9.08-19.16-3.58-14.04-5.72-28.43-6.77-42.86.32-12-.79-24.07,1.02-35.98,2.03-22.18,6.86-44.05,13.91-65.16,6.11-18.7,14.09-36.72,22.36-54.55,8.49-18.1,18.53-35.41,28.42-52.77,12.2-19.4,25.33-38.22,39.36-56.34,11.68-14.65,24.07-28.71,36.72-42.52,12.81-13.17,25.85-26.12,39.06-38.89,20.56-18.76,41.67-36.96,61.49-56.53,12.55-13.58,25.14-27.24,35.58-42.56,6.9-9.95,12.89-20.65,16.69-32.19,2.36-7.63,3.85-16.22.61-23.82-4.71-11.85-17.59-19.5-30.2-18.62-8.8,1.15-17.43,3.67-25.41,7.57-21.17,9.88-39.98,24.05-57.69,39.13-15.2,12.37-29.3,26-43.39,39.59-10.68,11.92-22.48,22.8-32.74,35.09-40.68,45.74-74.17,97.28-105.19,149.88-16.96,29.94-33.39,60.81-41.37,94.53-1.2,4.36-1.76,8.88-3.31,13.15-.53-4.9-.66-9.91.55-14.72,5.95-26.9,18.74-51.52,30.87-76.03,2.23-3.48,4.19-7.11,6.03-10.8,11.64-20.19,24.06-39.92,36.58-59.56,15.09-23.86,31.61-46.78,48.84-69.12,10.08-11.94,19.88-24.13,30.44-35.66,2.73-2.62,4.98-5.66,7.45-8.52,13.35-13.63,26.75-27.2,40.42-40.51,10.29-8.76,20.2-17.98,30.84-26.33,14.9-11.76,30.27-23.19,47.4-31.52Z"/>
        <path class="cls-4" d="M774.22,118.94c4.9,3.55,9.4,7.84,11.95,13.42,10.63,18.02,16.47,38.45,19.33,59.06,1.48,7.9.55,15.97.81,23.95.54,13.42-1.78,26.72-4.27,39.86-4.42,21.78-11.62,42.93-20.49,63.29-14.05,32.73-34.05,62.84-58.27,88.92-24.54,27.37-53.28,50.78-84.03,70.81-19.85,12.77-40.61,24.06-61.77,34.49-15.65,8.09-32.18,14.47-47.19,23.78-14.89,9.12-29.17,19.75-40.23,33.4-10.08,11.88-17.18,26.75-18.07,42.45-1.35,17.24,5.48,34.69,17.68,46.86,9.69,10.35,22.45,17.16,35.5,22.32,20.42,7.93,42.42,10.37,64.11,11.82,9.36-.14,18.74.4,28.08-.36,36.12-2.64,72.09-10.11,105.65-23.94,26.24-10.54,50.85-24.88,73.74-41.42,21.58-15.67,41.62-33.57,59.05-53.77,3.57-4.37,7.74-8.21,11.17-12.68,25.7-31.5,46.08-68.01,55.39-107.8,3.55-15.44,4.7-31.31,5.38-47.09,1.24,10.27,2.65,20.73.66,31-3.63,26.77-13.15,52.45-25.85,76.19-7.84,15.49-17.88,29.73-28.44,43.46-6.47,8.82-14.17,16.62-21.3,24.89-9.64,11.12-20.78,20.79-31.84,30.44-20.18,17.42-42.45,32.36-65.9,45-54.16,28.94-116.53,42.41-177.78,38.13-19.51-1.34-39.05-5.04-57.13-12.67-12.23-5.26-24.17-11.98-33.27-21.87-11-11.61-18.21-27.3-17.78-43.47-.75-18.2,7.26-35.74,18.78-49.47,6.07-7.83,13.75-14.19,21.27-20.57,13.09-9.74,26.96-18.54,41.87-25.24,34.73-16.02,68.99-33.5,100.34-55.55,26.18-18.4,50.43-39.56,71.79-63.41,24.78-26.98,44.75-58.4,58.44-92.39,13.05-32.13,22.71-66.4,21.96-101.34-.39-30.06-8.99-60.33-26.17-85.17-1.2-1.69-2.25-3.48-3.17-5.33Z"/>
        <path class="cls-12" d="M256.71,168.99c9.19-6.81,18.39-14.39,29.61-17.51,5.26-1.97,12.79,1.68,12.18,7.92.68,5.79-2.98,10.63-5.68,15.38-5.21,7.94-10.92,15.58-17.31,22.61-4.52,5.74-10.15,10.45-14.81,16.06-8.4,7.32-15.76,15.77-24.19,23.05-7.36,6.65-14.41,13.62-21.56,20.49-12.18,10.85-22.95,23.13-34.27,34.85-4.77,4.9-9.14,10.16-13.53,15.4-13.76,15.14-26.11,31.49-37.98,48.13-31.72,44.52-60.57,91.43-81.84,141.91-10.99,24.98-17.87,51.79-20,79-.45,9.67-1.25,19.36-.19,29.03-.1,7.9,1.78,15.65,2.04,23.52-3.04-6.39-4.85-13.36-4.88-20.46-.02-10.64-.01-21.29-.02-31.93,2.1-21.53,5.9-43.05,13.69-63.31,18.78-50.52,46.31-97.27,76.39-141.81,17.92-26.32,37.34-51.65,58.58-75.38,16.37-18.24,33.72-35.57,51.54-52.39,5.67-4.72,10.78-10.05,16.21-15.04,9.19-8.4,18.09-17.14,26.44-26.38,9.98-10.51,19.32-21.81,26.3-34.57,1.68-3.04,2.91-6.73,1.68-10.16-1.55-3.27-5.77-3.81-8.91-2.86-7.04,2.26-13.35,6.26-19.33,10.53-11.94,8.52-23.27,17.89-34.14,27.75-14.58,14.07-29.54,27.82-43.12,42.89-4.26,4.06-8.32,8.31-12.14,12.78-42.59,46.64-79.09,98.55-111.24,152.84-12.82,21.64-25.22,43.62-35.16,66.76-10.82,24.03-17.21,49.97-19.41,76.2-.42,7.5.06,15.04-.66,22.53-1.61-6.67-3.27-13.52-2.64-20.43,1.58-12.13,2.64-24.35,5.53-36.26,5.93-26.71,17.43-51.76,30.22-75.81,25.37-46.71,54.08-91.63,86.18-134.01,9.85-12.43,19.41-25.13,30.1-36.87,20.31-23.89,42.05-46.57,65.03-67.92,10.28-9,20.17-18.53,31.29-26.53Z"/>
        <path class="cls-16" d="M823.25,169.25c3.33,3.6,6.83,7.29,8.5,12.01,5.29,13.82,8.74,28.4,9.73,43.18,2.07,18.36.11,36.92-3.2,55.01-3.51,18.4-8.99,36.38-15.83,53.81-8.16,20.61-17.71,40.77-30.11,59.2-18.62,28.4-42.4,53-67.88,75.29-15.3,12.51-30.77,24.94-47.65,35.29-16.86,10.98-34.6,20.57-52.81,29.1-19.27,9.41-39.58,16.54-58.62,26.43-11.05,5.7-21.86,12.39-30.2,21.74-7.98,8.27-14.52,19.19-14.01,31.04-.19,10.9,7.31,20.19,15.71,26.31,14.59,10.4,32.93,12.98,50.33,14.64,9.72-.04,19.51.64,29.18-.61,53.56-4.4,105.88-22.81,150.57-52.64,9.47-6.48,19.07-12.85,27.77-20.36,12.62-9.96,24.63-20.72,35.53-32.55,17.51-18.1,32.98-38.19,46.12-59.69,18.25-30.24,30.88-64.09,35.23-99.22,2.52-16.46,1.57-33.12,1.32-49.69,2.14,5.35,3.42,11.08,3.28,16.87-.27,10.74-.01,21.52-1.53,32.18-3.74,31.48-14.08,61.99-29.15,89.81-13.1,24.03-29.65,46.03-47.87,66.4-11.02,11.62-22.3,23.05-34.82,33.06-9.86,9.06-20.99,16.58-32,24.14-9.94,6.61-20.05,12.98-30.65,18.46-7.5,3.33-14.47,7.74-22.15,10.66-38.71,16.49-80.56,26.39-122.74,26.27-17.82-.64-36.25-2.28-52.41-10.48-10.27-5.16-19.83-13.38-23.39-24.65-3.95-11.56.12-24.22,6.85-33.89,4.63-6.24,10.43-11.47,16.02-16.82,13.71-10.63,29.67-17.8,45.52-24.6,25.29-10.56,50.3-21.98,73.94-35.91,14.41-8.8,28.62-17.99,42.01-28.3,17.04-13.01,32.88-27.54,48-42.72,11.9-12.9,23.65-26.05,33.51-40.59,17.47-24.37,30.03-51.91,39.74-80.19,7.46-21.88,12.28-44.69,14.09-67.74.92-21.85-1.66-44.09-9.56-64.58-1.88-5.33-4.6-10.31-6.37-15.67Z"/>
        <path class="cls-13" d="M861.19,221.97c3.22,3.94,5.88,8.47,7,13.48,5.62,21.83,7.15,44.82,3.92,67.15-3.98,34.18-16.32,66.92-32.32,97.2-8.69,16.14-18.68,31.59-29.84,46.13-4.57,6.08-9.78,11.63-14.54,17.55-38.61,42.28-85.94,76.66-138.38,99.75-20.08,9.11-41.31,15.22-61.96,22.85-10.43,3.46-20.61,8.76-27.81,17.28-1.07,4.49,3.67,6.47,7.15,7.47,14.57,3.72,29.71,1.89,44.43.19,13.68-2.67,27.5-4.94,40.78-9.31,55.71-17.63,105.98-50.62,146.74-92.23,20.63-21.22,38.79-44.92,53.31-70.73,17.41-30.91,30.54-64.79,34.17-100.29,1.14-12.99,1.03-26.12-.47-39.08-.24-8.47-2.64-16.66-3.89-24.99,2.34,4.85,5.09,9.67,6.05,15.03,3.05,23.14,3.14,46.83-1.67,69.76-7.21,34.74-22.07,67.59-41.24,97.32-31.95,49.9-76.99,90.8-128.26,120.2-16.48,9.1-33.54,17.19-51.23,23.66-26.23,9.5-53.98,15.08-81.88,15.91-9.24-1.28-20.09-.73-27.07-8.04-.62-4.63,1.96-8.75,5.3-11.68,10.8-8.92,24.37-13.15,37.4-17.65,18.37-6.12,36.78-12.33,54.29-20.68,42.41-19.54,81.68-46.16,114.84-79.08,4.79-3.88,8.39-8.93,12.88-13.12,26.64-27.91,47.3-61.25,62.14-96.79,11.5-27.52,18.95-56.97,19.83-86.85.1-18.45-2.39-36.97-8.08-54.55-.65-1.92-1.19-3.88-1.59-5.86Z"/>
      </g>
    </g>
  </g>
</svg>